<?xml version="1.0" encoding="UTF-8" standalone="no"?>
<!DOCTYPE svg PUBLIC "-//W3C//DTD SVG 1.1//EN"
 "http://www.w3.org/Graphics/SVG/1.1/DTD/svg11.dtd">
<!-- Generated by graphviz version 12.2.1 (20241206.2353)
 -->
<!-- Title: G Pages: 1 -->
<svg width="531pt" height="134pt"
 viewBox="0.00 0.00 531.47 133.73" xmlns="http://www.w3.org/2000/svg" xmlns:xlink="http://www.w3.org/1999/xlink">
<g id="graph0" class="graph" transform="scale(1 1) rotate(0) translate(4 129.73)">
<title>G</title>
<polygon fill="white" stroke="none" points="-4,4 -4,-129.73 527.47,-129.73 527.47,4 -4,4"/>
<!-- s0 -->
<g id="node1" class="node">
<title>s0</title>
<ellipse fill="none" stroke="black" cx="118" cy="-36.23" rx="27" ry="18"/>
<text text-anchor="middle" x="118" y="-31.18" font-family="Times New Roman,serif" font-size="14.00">s0</text>
</g>
<!-- s1 -->
<g id="node2" class="node">
<title>s1</title>
<ellipse fill="none" stroke="black" cx="214.75" cy="-73.23" rx="27" ry="18"/>
<text text-anchor="middle" x="214.75" y="-68.18" font-family="Times New Roman,serif" font-size="14.00">s1</text>
</g>
<!-- s0&#45;&gt;s1 -->
<g id="edge1" class="edge">
<title>s0&#45;&gt;s1</title>
<path fill="none" stroke="black" d="M141.94,-45.19C153.46,-49.69 167.64,-55.23 180.34,-60.19"/>
<polygon fill="black" stroke="black" points="179.03,-63.43 189.62,-63.81 181.57,-56.91 179.03,-63.43"/>
<text text-anchor="middle" x="166.38" y="-59.04" font-family="Times New Roman,serif" font-size="14.00">b</text>
</g>
<!-- s2 -->
<g id="node3" class="node">
<title>s2</title>
<ellipse fill="none" stroke="black" cx="310.75" cy="-20.23" rx="27" ry="18"/>
<text text-anchor="middle" x="310.75" y="-15.18" font-family="Times New Roman,serif" font-size="14.00">s2</text>
</g>
<!-- s0&#45;&gt;s2 -->
<g id="edge2" class="edge">
<title>s0&#45;&gt;s2</title>
<path fill="none" stroke="black" d="M145.11,-33.66C157.95,-32.42 173.66,-30.95 187.75,-29.73 216.13,-27.29 248.24,-24.8 272.39,-22.98"/>
<polygon fill="black" stroke="black" points="272.34,-26.5 282.05,-22.26 271.82,-19.52 272.34,-26.5"/>
<text text-anchor="middle" x="214.75" y="-32.93" font-family="Times New Roman,serif" font-size="14.00">a</text>
</g>
<!-- s1&#45;&gt;s1 -->
<g id="edge3" class="edge">
<title>s1&#45;&gt;s1</title>
<path fill="none" stroke="black" d="M206.18,-90.64C204.58,-100.32 207.44,-109.23 214.75,-109.23 218.98,-109.23 221.72,-106.26 222.96,-101.87"/>
<polygon fill="black" stroke="black" points="226.45,-102.26 223.27,-92.16 219.46,-102.04 226.45,-102.26"/>
<text text-anchor="middle" x="214.75" y="-112.43" font-family="Times New Roman,serif" font-size="14.00">b</text>
</g>
<!-- s1&#45;&gt;s2 -->
<g id="edge4" class="edge">
<title>s1&#45;&gt;s2</title>
<path fill="none" stroke="black" d="M236.15,-61.73C248.83,-54.58 265.38,-45.25 279.57,-37.25"/>
<polygon fill="black" stroke="black" points="281.08,-40.42 288.07,-32.46 277.64,-34.32 281.08,-40.42"/>
<text text-anchor="middle" x="262.75" y="-51.52" font-family="Times New Roman,serif" font-size="14.00">a</text>
</g>
<!-- s2&#45;&gt;s2 -->
<g id="edge6" class="edge">
<title>s2&#45;&gt;s2</title>
<path fill="none" stroke="black" d="M302.18,-37.64C300.58,-47.32 303.44,-56.23 310.75,-56.23 314.98,-56.23 317.72,-53.26 318.96,-48.87"/>
<polygon fill="black" stroke="black" points="322.45,-49.26 319.27,-39.16 315.46,-49.04 322.45,-49.26"/>
<text text-anchor="middle" x="310.75" y="-59.43" font-family="Times New Roman,serif" font-size="14.00">a</text>
</g>
<!-- s3 -->
<g id="node4" class="node">
<title>s3</title>
<ellipse fill="none" stroke="black" cx="407.5" cy="-48.23" rx="27" ry="18"/>
<text text-anchor="middle" x="407.5" y="-43.18" font-family="Times New Roman,serif" font-size="14.00">s3</text>
</g>
<!-- s2&#45;&gt;s3 -->
<g id="edge5" class="edge">
<title>s2&#45;&gt;s3</title>
<path fill="none" stroke="black" d="M333.31,-30.73C340.34,-33.83 348.26,-36.99 355.75,-39.23 360.23,-40.58 365,-41.75 369.76,-42.76"/>
<polygon fill="black" stroke="black" points="368.71,-46.13 379.18,-44.56 370.02,-39.25 368.71,-46.13"/>
<text text-anchor="middle" x="359.12" y="-43.94" font-family="Times New Roman,serif" font-size="14.00">b</text>
</g>
<!-- s3&#45;&gt;s2 -->
<g id="edge8" class="edge">
<title>s3&#45;&gt;s2</title>
<path fill="none" stroke="black" d="M390.16,-33.89C382.35,-27.97 372.53,-21.79 362.5,-18.73 358.16,-17.42 353.52,-16.69 348.88,-16.36"/>
<polygon fill="black" stroke="black" points="349.01,-12.86 338.99,-16.3 348.97,-19.86 349.01,-12.86"/>
<text text-anchor="middle" x="359.12" y="-21.93" font-family="Times New Roman,serif" font-size="14.00">a</text>
</g>
<!-- s4 -->
<g id="node5" class="node">
<title>s4</title>
<ellipse fill="none" stroke="black" cx="500.36" cy="-48.23" rx="19.11" ry="19.11"/>
<ellipse fill="none" stroke="black" cx="500.36" cy="-48.23" rx="23.11" ry="23.11"/>
<text text-anchor="middle" x="500.36" y="-43.18" font-family="Times New Roman,serif" font-size="14.00">s4</text>
</g>
<!-- s3&#45;&gt;s4 -->
<g id="edge7" class="edge">
<title>s3&#45;&gt;s4</title>
<path fill="none" stroke="black" d="M434.78,-48.23C444.35,-48.23 455.3,-48.23 465.44,-48.23"/>
<polygon fill="black" stroke="black" points="465.32,-51.73 475.32,-48.23 465.32,-44.73 465.32,-51.73"/>
<text text-anchor="middle" x="455.88" y="-51.43" font-family="Times New Roman,serif" font-size="14.00">b</text>
</g>
<!-- s4&#45;&gt;s1 -->
<g id="edge9" class="edge">
<title>s4&#45;&gt;s1</title>
<path fill="none" stroke="black" d="M479.81,-59.69C473.41,-63.11 466.16,-66.63 459.25,-69.23 448.66,-73.22 445.68,-73.49 434.5,-75.23 368.23,-85.59 350.68,-86.64 283.75,-82.23 273.67,-81.57 262.81,-80.36 252.79,-79.03"/>
<polygon fill="black" stroke="black" points="253.39,-75.58 243,-77.66 252.42,-82.52 253.39,-75.58"/>
<text text-anchor="middle" x="359.12" y="-87.6" font-family="Times New Roman,serif" font-size="14.00">b</text>
</g>
<!-- s4&#45;&gt;s2 -->
<g id="edge10" class="edge">
<title>s4&#45;&gt;s2</title>
<path fill="none" stroke="black" d="M482.66,-32.94C470.35,-22.75 452.66,-10.26 434.5,-4.73 405.27,4.16 370.64,-1.61 345.62,-8.5"/>
<polygon fill="black" stroke="black" points="344.9,-5.06 336.31,-11.26 346.89,-11.77 344.9,-5.06"/>
<text text-anchor="middle" x="407.5" y="-7.93" font-family="Times New Roman,serif" font-size="14.00">a</text>
</g>
<!-- start -->
<g id="node6" class="node">
<title>start</title>
<ellipse fill="none" stroke="black" cx="27" cy="-36.23" rx="27" ry="18"/>
<text text-anchor="middle" x="27" y="-31.18" font-family="Times New Roman,serif" font-size="14.00">start</text>
</g>
<!-- start&#45;&gt;s0 -->
<g id="edge11" class="edge">
<title>start&#45;&gt;s0</title>
<path fill="none" stroke="black" d="M54.22,-36.23C62.12,-36.23 70.94,-36.23 79.43,-36.23"/>
<polygon fill="black" stroke="black" points="79.14,-39.73 89.14,-36.23 79.14,-32.73 79.14,-39.73"/>
</g>
</g>
</svg>
