<?xml version="1.0" encoding="UTF-8" standalone="no"?>
<!DOCTYPE svg PUBLIC "-//W3C//DTD SVG 1.1//EN"
 "http://www.w3.org/Graphics/SVG/1.1/DTD/svg11.dtd">
<!-- Generated by graphviz version 12.2.1 (20241206.2353)
 -->
<!-- Title: G Pages: 1 -->
<svg width="352pt" height="113pt"
 viewBox="0.00 0.00 352.25 113.00" xmlns="http://www.w3.org/2000/svg" xmlns:xlink="http://www.w3.org/1999/xlink">
<g id="graph0" class="graph" transform="scale(1 1) rotate(0) translate(4 109)">
<title>G</title>
<polygon fill="white" stroke="none" points="-4,4 -4,-109 348.25,-109 348.25,4 -4,4"/>
<!-- s0 -->
<g id="node1" class="node">
<title>s0</title>
<ellipse fill="none" stroke="black" cx="27" cy="-18" rx="27" ry="18"/>
<text text-anchor="middle" x="27" y="-12.95" font-family="Times New Roman,serif" font-size="14.00">s0</text>
</g>
<!-- s1 -->
<g id="node2" class="node">
<title>s1</title>
<ellipse fill="none" stroke="black" cx="123.75" cy="-18" rx="27" ry="18"/>
<text text-anchor="middle" x="123.75" y="-12.95" font-family="Times New Roman,serif" font-size="14.00">s1</text>
</g>
<!-- s0&#45;&gt;s1 -->
<g id="edge1" class="edge">
<title>s0&#45;&gt;s1</title>
<path fill="none" stroke="black" d="M54.39,-18C63.94,-18 74.91,-18 85.23,-18"/>
<polygon fill="black" stroke="black" points="84.98,-21.5 94.98,-18 84.98,-14.5 84.98,-21.5"/>
<text text-anchor="middle" x="75.38" y="-21.2" font-family="Times New Roman,serif" font-size="14.00">0</text>
</g>
<!-- s2 -->
<g id="node3" class="node">
<title>s2</title>
<ellipse fill="none" stroke="black" cx="220.5" cy="-18" rx="27" ry="18"/>
<text text-anchor="middle" x="220.5" y="-12.95" font-family="Times New Roman,serif" font-size="14.00">s2</text>
</g>
<!-- s1&#45;&gt;s2 -->
<g id="edge2" class="edge">
<title>s1&#45;&gt;s2</title>
<path fill="none" stroke="black" d="M151.14,-18C160.69,-18 171.66,-18 181.98,-18"/>
<polygon fill="black" stroke="black" points="181.73,-21.5 191.73,-18 181.73,-14.5 181.73,-21.5"/>
<text text-anchor="middle" x="172.12" y="-21.2" font-family="Times New Roman,serif" font-size="14.00">0</text>
</g>
<!-- s3 -->
<g id="node4" class="node">
<title>s3</title>
<ellipse fill="none" stroke="black" cx="317.25" cy="-18" rx="27" ry="18"/>
<text text-anchor="middle" x="317.25" y="-12.95" font-family="Times New Roman,serif" font-size="14.00">s3</text>
</g>
<!-- s2&#45;&gt;s3 -->
<g id="edge3" class="edge">
<title>s2&#45;&gt;s3</title>
<path fill="none" stroke="black" d="M247.89,-18C257.44,-18 268.41,-18 278.73,-18"/>
<polygon fill="black" stroke="black" points="278.48,-21.5 288.48,-18 278.48,-14.5 278.48,-21.5"/>
<text text-anchor="middle" x="268.88" y="-21.2" font-family="Times New Roman,serif" font-size="14.00">1</text>
</g>
<!-- s3&#45;&gt;s3 -->
<g id="edge4" class="edge">
<title>s3&#45;&gt;s3</title>
<path fill="none" stroke="black" d="M312.87,-36.15C312.2,-45.54 313.66,-54 317.25,-54 319.21,-54 320.54,-51.47 321.23,-47.64"/>
<polygon fill="black" stroke="black" points="324.72,-47.78 321.57,-37.67 317.73,-47.54 324.72,-47.78"/>
<text text-anchor="middle" x="317.25" y="-57.2" font-family="Times New Roman,serif" font-size="14.00">0</text>
</g>
<!-- s3&#45;&gt;s3 -->
<g id="edge5" class="edge">
<title>s3&#45;&gt;s3</title>
<path fill="none" stroke="black" d="M310.04,-35.7C306.06,-53 308.46,-72 317.25,-72 324.11,-72 327.08,-60.4 326.15,-47.08"/>
<polygon fill="black" stroke="black" points="329.62,-46.57 324.68,-37.2 322.69,-47.6 329.62,-46.57"/>
<text text-anchor="middle" x="317.25" y="-75.2" font-family="Times New Roman,serif" font-size="14.00">1</text>
</g>
</g>
</svg>
