<?xml version="1.0" encoding="UTF-8" standalone="no"?>
<!DOCTYPE svg PUBLIC "-//W3C//DTD SVG 1.1//EN"
 "http://www.w3.org/Graphics/SVG/1.1/DTD/svg11.dtd">
<!-- Generated by graphviz version 12.2.1 (20241206.2353)
 -->
<!-- Title: G Pages: 1 -->
<svg width="449pt" height="157pt"
 viewBox="0.00 0.00 449.00 157.48" xmlns="http://www.w3.org/2000/svg" xmlns:xlink="http://www.w3.org/1999/xlink">
<g id="graph0" class="graph" transform="scale(1 1) rotate(0) translate(4 153.48)">
<title>G</title>
<polygon fill="white" stroke="none" points="-4,4 -4,-153.48 445,-153.48 445,4 -4,4"/>
<!-- s1 -->
<g id="node1" class="node">
<title>s1</title>
<ellipse fill="none" stroke="black" cx="27" cy="-81" rx="27" ry="18"/>
<text text-anchor="middle" x="27" y="-75.95" font-family="Times New Roman,serif" font-size="14.00">s1</text>
</g>
<!-- s1&#45;&gt;s1 -->
<g id="edge2" class="edge">
<title>s1&#45;&gt;s1</title>
<path fill="none" stroke="black" d="M18.36,-98.41C16.75,-108.09 19.63,-117 27,-117 31.26,-117 34.02,-114.02 35.28,-109.64"/>
<polygon fill="black" stroke="black" points="38.77,-110.03 35.59,-99.92 31.77,-109.81 38.77,-110.03"/>
<text text-anchor="middle" x="27" y="-120.2" font-family="Times New Roman,serif" font-size="14.00">0</text>
</g>
<!-- s4 -->
<g id="node2" class="node">
<title>s4</title>
<ellipse fill="none" stroke="black" cx="123.75" cy="-81" rx="27" ry="18"/>
<text text-anchor="middle" x="123.75" y="-75.95" font-family="Times New Roman,serif" font-size="14.00">s4</text>
</g>
<!-- s1&#45;&gt;s4 -->
<g id="edge1" class="edge">
<title>s1&#45;&gt;s4</title>
<path fill="none" stroke="black" d="M54.39,-81C63.94,-81 74.91,-81 85.23,-81"/>
<polygon fill="black" stroke="black" points="84.98,-84.5 94.98,-81 84.98,-77.5 84.98,-84.5"/>
<text text-anchor="middle" x="75.38" y="-84.2" font-family="Times New Roman,serif" font-size="14.00">0</text>
</g>
<!-- s0 -->
<g id="node3" class="node">
<title>s0</title>
<ellipse fill="none" stroke="black" cx="414" cy="-18" rx="27" ry="18"/>
<text text-anchor="middle" x="414" y="-12.95" font-family="Times New Roman,serif" font-size="14.00">s0</text>
</g>
<!-- s1&#45;&gt;s0 -->
<g id="edge3" class="edge">
<title>s1&#45;&gt;s0</title>
<path fill="none" stroke="black" d="M37.9,-64.25C53.02,-41.06 84.2,-2 122.75,-2 122.75,-2 122.75,-2 318.25,-2 338,-2 359.74,-5.42 377.42,-9.1"/>
<polygon fill="black" stroke="black" points="376.65,-12.52 387.17,-11.26 378.16,-5.68 376.65,-12.52"/>
<text text-anchor="middle" x="220.5" y="-5.2" font-family="Times New Roman,serif" font-size="14.00">0</text>
</g>
<!-- s3 -->
<g id="node5" class="node">
<title>s3</title>
<ellipse fill="none" stroke="black" cx="220.5" cy="-108" rx="27" ry="18"/>
<text text-anchor="middle" x="220.5" y="-102.95" font-family="Times New Roman,serif" font-size="14.00">s3</text>
</g>
<!-- s4&#45;&gt;s3 -->
<g id="edge10" class="edge">
<title>s4&#45;&gt;s3</title>
<path fill="none" stroke="black" d="M149.15,-87.95C159.87,-91.01 172.66,-94.65 184.38,-97.99"/>
<polygon fill="black" stroke="black" points="183.15,-101.28 193.73,-100.66 185.07,-94.55 183.15,-101.28"/>
<text text-anchor="middle" x="172.12" y="-98.51" font-family="Times New Roman,serif" font-size="14.00">0</text>
</g>
<!-- s2 -->
<g id="node4" class="node">
<title>s2</title>
<ellipse fill="none" stroke="black" cx="317.25" cy="-88" rx="27" ry="18"/>
<text text-anchor="middle" x="317.25" y="-82.95" font-family="Times New Roman,serif" font-size="14.00">s2</text>
</g>
<!-- s2&#45;&gt;s1 -->
<g id="edge6" class="edge">
<title>s2&#45;&gt;s1</title>
<path fill="none" stroke="black" d="M302.53,-103.58C294.46,-111.9 283.62,-121.69 272.25,-128 262.25,-133.55 258.82,-133.43 247.5,-135 179.38,-144.45 101.66,-115.66 59.41,-96.55"/>
<polygon fill="black" stroke="black" points="61.13,-93.49 50.58,-92.45 58.18,-99.84 61.13,-93.49"/>
<text text-anchor="middle" x="172.12" y="-136.18" font-family="Times New Roman,serif" font-size="14.00">1</text>
</g>
<!-- s2&#45;&gt;s4 -->
<g id="edge4" class="edge">
<title>s2&#45;&gt;s4</title>
<path fill="none" stroke="black" d="M294.13,-78.36C280.88,-73.11 263.55,-67.17 247.5,-64.5 223.82,-60.57 217.33,-61.68 193.5,-64.5 182.49,-65.8 170.69,-68.24 160.03,-70.85"/>
<polygon fill="black" stroke="black" points="159.27,-67.43 150.46,-73.32 161.02,-74.21 159.27,-67.43"/>
<text text-anchor="middle" x="220.5" y="-67.7" font-family="Times New Roman,serif" font-size="14.00">1</text>
</g>
<!-- s2&#45;&gt;s0 -->
<g id="edge8" class="edge">
<title>s2&#45;&gt;s0</title>
<path fill="none" stroke="black" d="M336.07,-74.83C350.23,-64.37 370.26,-49.58 386.33,-37.7"/>
<polygon fill="black" stroke="black" points="388.08,-40.76 394.04,-32.01 383.92,-35.13 388.08,-40.76"/>
<text text-anchor="middle" x="365.62" y="-58.3" font-family="Times New Roman,serif" font-size="14.00">1</text>
</g>
<!-- s2&#45;&gt;s2 -->
<g id="edge5" class="edge">
<title>s2&#45;&gt;s2</title>
<path fill="none" stroke="black" d="M308.61,-105.41C307,-115.09 309.88,-124 317.25,-124 321.51,-124 324.27,-121.02 325.53,-116.64"/>
<polygon fill="black" stroke="black" points="329.02,-117.03 325.84,-106.92 322.02,-116.81 329.02,-117.03"/>
<text text-anchor="middle" x="317.25" y="-127.2" font-family="Times New Roman,serif" font-size="14.00">1</text>
</g>
<!-- s2&#45;&gt;s3 -->
<g id="edge7" class="edge">
<title>s2&#45;&gt;s3</title>
<path fill="none" stroke="black" d="M294.8,-98.52C287.78,-101.49 279.83,-104.35 272.25,-106 268.08,-106.9 263.68,-107.54 259.28,-107.97"/>
<polygon fill="black" stroke="black" points="259.07,-104.48 249.31,-108.6 259.51,-111.47 259.07,-104.48"/>
<text text-anchor="middle" x="268.88" y="-110.21" font-family="Times New Roman,serif" font-size="14.00">1</text>
</g>
<!-- s3&#45;&gt;s2 -->
<g id="edge9" class="edge">
<title>s3&#45;&gt;s2</title>
<path fill="none" stroke="black" d="M240.87,-95.59C248.28,-91.54 256.99,-87.55 265.5,-85.5 269.91,-84.44 274.59,-83.9 279.26,-83.73"/>
<polygon fill="black" stroke="black" points="279.11,-87.23 289.17,-83.9 279.24,-80.23 279.11,-87.23"/>
<text text-anchor="middle" x="268.88" y="-88.7" font-family="Times New Roman,serif" font-size="14.00">0</text>
</g>
</g>
</svg>
