<?xml version="1.0" encoding="UTF-8" standalone="no"?>
<!DOCTYPE svg PUBLIC "-//W3C//DTD SVG 1.1//EN"
 "http://www.w3.org/Graphics/SVG/1.1/DTD/svg11.dtd">
<!-- Generated by graphviz version 12.2.1 (20241206.2353)
 -->
<!-- Title: G Pages: 1 -->
<svg width="435pt" height="127pt"
 viewBox="0.00 0.00 434.72 127.00" xmlns="http://www.w3.org/2000/svg" xmlns:xlink="http://www.w3.org/1999/xlink">
<g id="graph0" class="graph" transform="scale(1 1) rotate(0) translate(4 123)">
<title>G</title>
<polygon fill="white" stroke="none" points="-4,4 -4,-123 430.72,-123 430.72,4 -4,4"/>
<!-- s0 -->
<g id="node1" class="node">
<title>s0</title>
<ellipse fill="none" stroke="black" cx="118" cy="-18" rx="27" ry="18"/>
<text text-anchor="middle" x="118" y="-12.95" font-family="Times New Roman,serif" font-size="14.00">s0</text>
</g>
<!-- s0&#45;&gt;s0 -->
<g id="edge2" class="edge">
<title>s0&#45;&gt;s0</title>
<path fill="none" stroke="black" d="M109.88,-35.41C108.36,-45.09 111.07,-54 118,-54 122.01,-54 124.6,-51.02 125.79,-46.64"/>
<polygon fill="black" stroke="black" points="129.28,-47.02 126.08,-36.92 122.28,-46.81 129.28,-47.02"/>
<text text-anchor="middle" x="118" y="-57.2" font-family="Times New Roman,serif" font-size="14.00">b</text>
</g>
<!-- s1 -->
<g id="node2" class="node">
<title>s1</title>
<ellipse fill="none" stroke="black" cx="214" cy="-64" rx="27" ry="18"/>
<text text-anchor="middle" x="214" y="-58.95" font-family="Times New Roman,serif" font-size="14.00">s1</text>
</g>
<!-- s0&#45;&gt;s1 -->
<g id="edge1" class="edge">
<title>s0&#45;&gt;s1</title>
<path fill="none" stroke="black" d="M140.33,-28.44C152.38,-34.34 167.69,-41.82 181.14,-48.41"/>
<polygon fill="black" stroke="black" points="179.55,-51.53 190.07,-52.78 182.63,-45.24 179.55,-51.53"/>
<text text-anchor="middle" x="166" y="-45.58" font-family="Times New Roman,serif" font-size="14.00">a</text>
</g>
<!-- s1&#45;&gt;s1 -->
<g id="edge3" class="edge">
<title>s1&#45;&gt;s1</title>
<path fill="none" stroke="black" d="M205.43,-81.41C203.83,-91.09 206.69,-100 214,-100 218.23,-100 220.97,-97.02 222.21,-92.64"/>
<polygon fill="black" stroke="black" points="225.7,-93.03 222.52,-82.92 218.71,-92.81 225.7,-93.03"/>
<text text-anchor="middle" x="214" y="-103.2" font-family="Times New Roman,serif" font-size="14.00">a</text>
</g>
<!-- s3 -->
<g id="node3" class="node">
<title>s3</title>
<ellipse fill="none" stroke="black" cx="310.75" cy="-101" rx="27" ry="18"/>
<text text-anchor="middle" x="310.75" y="-95.95" font-family="Times New Roman,serif" font-size="14.00">s3</text>
</g>
<!-- s1&#45;&gt;s3 -->
<g id="edge4" class="edge">
<title>s1&#45;&gt;s3</title>
<path fill="none" stroke="black" d="M229.37,-79.32C237.32,-86.71 247.84,-94.85 259,-99 263.2,-100.56 267.74,-101.58 272.31,-102.21"/>
<polygon fill="black" stroke="black" points="271.83,-105.69 282.07,-102.96 272.36,-98.71 271.83,-105.69"/>
<text text-anchor="middle" x="262.38" y="-104.17" font-family="Times New Roman,serif" font-size="14.00">b</text>
</g>
<!-- s3&#45;&gt;s1 -->
<g id="edge5" class="edge">
<title>s3&#45;&gt;s1</title>
<path fill="none" stroke="black" d="M289.54,-89.62C282.19,-85.77 273.73,-81.65 265.75,-78.5 260.97,-76.62 255.85,-74.86 250.76,-73.27"/>
<polygon fill="black" stroke="black" points="251.88,-69.95 241.3,-70.49 249.9,-76.66 251.88,-69.95"/>
<text text-anchor="middle" x="262.38" y="-81.7" font-family="Times New Roman,serif" font-size="14.00">a</text>
</g>
<!-- s4 -->
<g id="node4" class="node">
<title>s4</title>
<ellipse fill="none" stroke="black" cx="403.61" cy="-48" rx="19.11" ry="19.11"/>
<ellipse fill="none" stroke="black" cx="403.61" cy="-48" rx="23.11" ry="23.11"/>
<text text-anchor="middle" x="403.61" y="-42.95" font-family="Times New Roman,serif" font-size="14.00">s4</text>
</g>
<!-- s3&#45;&gt;s4 -->
<g id="edge6" class="edge">
<title>s3&#45;&gt;s4</title>
<path fill="none" stroke="black" d="M331.91,-89.24C344.08,-82.14 359.79,-72.98 373.31,-65.09"/>
<polygon fill="black" stroke="black" points="374.94,-68.19 381.82,-60.13 371.41,-62.14 374.94,-68.19"/>
<text text-anchor="middle" x="359.12" y="-77.7" font-family="Times New Roman,serif" font-size="14.00">b</text>
</g>
<!-- s4&#45;&gt;s0 -->
<g id="edge8" class="edge">
<title>s4&#45;&gt;s0</title>
<path fill="none" stroke="black" d="M380.47,-45.66C332.06,-40.54 216.31,-28.29 156.38,-21.95"/>
<polygon fill="black" stroke="black" points="156.99,-18.5 146.68,-20.93 156.25,-25.46 156.99,-18.5"/>
<text text-anchor="middle" x="262.38" y="-36.55" font-family="Times New Roman,serif" font-size="14.00">b</text>
</g>
<!-- s4&#45;&gt;s1 -->
<g id="edge7" class="edge">
<title>s4&#45;&gt;s1</title>
<path fill="none" stroke="black" d="M380.26,-49.69C356.36,-51.52 317.36,-54.57 283.75,-57.5 273.62,-58.38 262.66,-59.4 252.52,-60.35"/>
<polygon fill="black" stroke="black" points="252.24,-56.86 242.62,-61.3 252.9,-63.83 252.24,-56.86"/>
<text text-anchor="middle" x="310.75" y="-60.7" font-family="Times New Roman,serif" font-size="14.00">a</text>
</g>
<!-- start -->
<g id="node5" class="node">
<title>start</title>
<ellipse fill="none" stroke="black" cx="27" cy="-18" rx="27" ry="18"/>
<text text-anchor="middle" x="27" y="-12.95" font-family="Times New Roman,serif" font-size="14.00">start</text>
</g>
<!-- start&#45;&gt;s0 -->
<g id="edge9" class="edge">
<title>start&#45;&gt;s0</title>
<path fill="none" stroke="black" d="M54.22,-18C62.12,-18 70.94,-18 79.43,-18"/>
<polygon fill="black" stroke="black" points="79.14,-21.5 89.14,-18 79.14,-14.5 79.14,-21.5"/>
</g>
</g>
</svg>
