<?xml version="1.0" encoding="UTF-8" standalone="no"?>
<!DOCTYPE svg PUBLIC "-//W3C//DTD SVG 1.1//EN"
 "http://www.w3.org/Graphics/SVG/1.1/DTD/svg11.dtd">
<!-- Generated by graphviz version 12.2.1 (20241206.2353)
 -->
<!-- Title: G Pages: 1 -->
<svg width="1308pt" height="178pt"
 viewBox="0.00 0.00 1307.93 177.71" xmlns="http://www.w3.org/2000/svg" xmlns:xlink="http://www.w3.org/1999/xlink">
<g id="graph0" class="graph" transform="scale(1 1) rotate(0) translate(4 173.71)">
<title>G</title>
<polygon fill="white" stroke="none" points="-4,4 -4,-173.71 1303.93,-173.71 1303.93,4 -4,4"/>
<!-- s6 -->
<g id="node1" class="node">
<title>s6</title>
<ellipse fill="none" stroke="black" cx="118" cy="-27.71" rx="27" ry="18"/>
<text text-anchor="middle" x="118" y="-22.66" font-family="Times New Roman,serif" font-size="14.00">s6</text>
</g>
<!-- s4 -->
<g id="node2" class="node">
<title>s4</title>
<ellipse fill="none" stroke="black" cx="226" cy="-73.71" rx="27" ry="18"/>
<text text-anchor="middle" x="226" y="-68.66" font-family="Times New Roman,serif" font-size="14.00">s4</text>
</g>
<!-- s6&#45;&gt;s4 -->
<g id="edge1" class="edge">
<title>s6&#45;&gt;s4</title>
<path fill="none" stroke="black" d="M141.22,-37.36C156.06,-43.8 175.83,-52.38 192.44,-59.58"/>
<polygon fill="black" stroke="black" points="190.85,-62.71 201.42,-63.48 193.64,-56.29 190.85,-62.71"/>
<text text-anchor="middle" x="172" y="-56.67" font-family="Times New Roman,serif" font-size="14.00">eps</text>
</g>
<!-- s7 -->
<g id="node3" class="node">
<title>s7</title>
<ellipse fill="none" stroke="black" cx="658" cy="-27.71" rx="27" ry="18"/>
<text text-anchor="middle" x="658" y="-22.66" font-family="Times New Roman,serif" font-size="14.00">s7</text>
</g>
<!-- s6&#45;&gt;s7 -->
<g id="edge2" class="edge">
<title>s6&#45;&gt;s7</title>
<path fill="none" stroke="black" d="M143.69,-21.85C165.07,-17.28 196.9,-11.71 225,-11.71 225,-11.71 225,-11.71 551,-11.71 574.6,-11.71 600.83,-15.64 621.3,-19.6"/>
<polygon fill="black" stroke="black" points="620.33,-22.98 630.83,-21.54 621.73,-16.12 620.33,-22.98"/>
<text text-anchor="middle" x="388" y="-14.91" font-family="Times New Roman,serif" font-size="14.00">eps</text>
</g>
<!-- s0 -->
<g id="node4" class="node">
<title>s0</title>
<ellipse fill="none" stroke="black" cx="334" cy="-151.71" rx="27" ry="18"/>
<text text-anchor="middle" x="334" y="-146.66" font-family="Times New Roman,serif" font-size="14.00">s0</text>
</g>
<!-- s4&#45;&gt;s0 -->
<g id="edge3" class="edge">
<title>s4&#45;&gt;s0</title>
<path fill="none" stroke="black" d="M244.01,-87.12C252.12,-93.44 262,-101.05 271,-107.71 282.04,-115.89 294.36,-124.7 305.09,-132.27"/>
<polygon fill="black" stroke="black" points="302.98,-135.06 313.17,-137.95 307,-129.33 302.98,-135.06"/>
<text text-anchor="middle" x="280" y="-123.21" font-family="Times New Roman,serif" font-size="14.00">eps</text>
</g>
<!-- s2 -->
<g id="node5" class="node">
<title>s2</title>
<ellipse fill="none" stroke="black" cx="334" cy="-97.71" rx="27" ry="18"/>
<text text-anchor="middle" x="334" y="-92.66" font-family="Times New Roman,serif" font-size="14.00">s2</text>
</g>
<!-- s4&#45;&gt;s2 -->
<g id="edge4" class="edge">
<title>s4&#45;&gt;s2</title>
<path fill="none" stroke="black" d="M252.12,-79.4C265.59,-82.45 282.41,-86.26 297.22,-89.61"/>
<polygon fill="black" stroke="black" points="296.06,-92.94 306.58,-91.73 297.6,-86.11 296.06,-92.94"/>
<text text-anchor="middle" x="280" y="-90.35" font-family="Times New Roman,serif" font-size="14.00">eps</text>
</g>
<!-- s8 -->
<g id="node6" class="node">
<title>s8</title>
<ellipse fill="none" stroke="black" cx="766" cy="-27.71" rx="27" ry="18"/>
<text text-anchor="middle" x="766" y="-22.66" font-family="Times New Roman,serif" font-size="14.00">s8</text>
</g>
<!-- s7&#45;&gt;s8 -->
<g id="edge5" class="edge">
<title>s7&#45;&gt;s8</title>
<path fill="none" stroke="black" d="M685.47,-27.71C698.22,-27.71 713.72,-27.71 727.64,-27.71"/>
<polygon fill="black" stroke="black" points="727.35,-31.21 737.35,-27.71 727.35,-24.21 727.35,-31.21"/>
<text text-anchor="middle" x="712" y="-30.91" font-family="Times New Roman,serif" font-size="14.00">eps</text>
</g>
<!-- s1 -->
<g id="node7" class="node">
<title>s1</title>
<ellipse fill="none" stroke="black" cx="442" cy="-151.71" rx="27" ry="18"/>
<text text-anchor="middle" x="442" y="-146.66" font-family="Times New Roman,serif" font-size="14.00">s1</text>
</g>
<!-- s0&#45;&gt;s1 -->
<g id="edge6" class="edge">
<title>s0&#45;&gt;s1</title>
<path fill="none" stroke="black" d="M361.47,-151.71C374.22,-151.71 389.72,-151.71 403.64,-151.71"/>
<polygon fill="black" stroke="black" points="403.35,-155.21 413.35,-151.71 403.35,-148.21 403.35,-155.21"/>
<text text-anchor="middle" x="388" y="-154.91" font-family="Times New Roman,serif" font-size="14.00">a</text>
</g>
<!-- s3 -->
<g id="node8" class="node">
<title>s3</title>
<ellipse fill="none" stroke="black" cx="442" cy="-97.71" rx="27" ry="18"/>
<text text-anchor="middle" x="442" y="-92.66" font-family="Times New Roman,serif" font-size="14.00">s3</text>
</g>
<!-- s2&#45;&gt;s3 -->
<g id="edge7" class="edge">
<title>s2&#45;&gt;s3</title>
<path fill="none" stroke="black" d="M361.47,-97.71C374.22,-97.71 389.72,-97.71 403.64,-97.71"/>
<polygon fill="black" stroke="black" points="403.35,-101.21 413.35,-97.71 403.35,-94.21 403.35,-101.21"/>
<text text-anchor="middle" x="388" y="-100.91" font-family="Times New Roman,serif" font-size="14.00">b</text>
</g>
<!-- s9 -->
<g id="node9" class="node">
<title>s9</title>
<ellipse fill="none" stroke="black" cx="862" cy="-27.71" rx="27" ry="18"/>
<text text-anchor="middle" x="862" y="-22.66" font-family="Times New Roman,serif" font-size="14.00">s9</text>
</g>
<!-- s8&#45;&gt;s9 -->
<g id="edge8" class="edge">
<title>s8&#45;&gt;s9</title>
<path fill="none" stroke="black" d="M793.43,-27.71C802.72,-27.71 813.35,-27.71 823.38,-27.71"/>
<polygon fill="black" stroke="black" points="823.25,-31.21 833.25,-27.71 823.25,-24.21 823.25,-31.21"/>
<text text-anchor="middle" x="814" y="-30.91" font-family="Times New Roman,serif" font-size="14.00">a</text>
</g>
<!-- s5 -->
<g id="node10" class="node">
<title>s5</title>
<ellipse fill="none" stroke="black" cx="550" cy="-70.71" rx="27" ry="18"/>
<text text-anchor="middle" x="550" y="-65.66" font-family="Times New Roman,serif" font-size="14.00">s5</text>
</g>
<!-- s1&#45;&gt;s5 -->
<g id="edge9" class="edge">
<title>s1&#45;&gt;s5</title>
<path fill="none" stroke="black" d="M461.38,-138.79C473.83,-129.94 490.57,-117.84 505,-106.71 511.2,-101.94 517.78,-96.66 523.91,-91.66"/>
<polygon fill="black" stroke="black" points="525.8,-94.64 531.3,-85.58 521.35,-89.23 525.8,-94.64"/>
<text text-anchor="middle" x="496" y="-122.58" font-family="Times New Roman,serif" font-size="14.00">eps</text>
</g>
<!-- s3&#45;&gt;s5 -->
<g id="edge10" class="edge">
<title>s3&#45;&gt;s5</title>
<path fill="none" stroke="black" d="M467.58,-91.45C481.13,-88 498.2,-83.65 513.2,-79.83"/>
<polygon fill="black" stroke="black" points="513.89,-83.27 522.71,-77.41 512.16,-76.49 513.89,-83.27"/>
<text text-anchor="middle" x="496" y="-89.03" font-family="Times New Roman,serif" font-size="14.00">eps</text>
</g>
<!-- s10 -->
<g id="node11" class="node">
<title>s10</title>
<ellipse fill="none" stroke="black" cx="970" cy="-27.71" rx="27" ry="18"/>
<text text-anchor="middle" x="970" y="-22.66" font-family="Times New Roman,serif" font-size="14.00">s10</text>
</g>
<!-- s9&#45;&gt;s10 -->
<g id="edge11" class="edge">
<title>s9&#45;&gt;s10</title>
<path fill="none" stroke="black" d="M889.47,-27.71C902.22,-27.71 917.72,-27.71 931.64,-27.71"/>
<polygon fill="black" stroke="black" points="931.35,-31.21 941.35,-27.71 931.35,-24.21 931.35,-31.21"/>
<text text-anchor="middle" x="916" y="-30.91" font-family="Times New Roman,serif" font-size="14.00">eps</text>
</g>
<!-- s5&#45;&gt;s4 -->
<g id="edge13" class="edge">
<title>s5&#45;&gt;s4</title>
<path fill="none" stroke="black" d="M522.86,-70.39C478.47,-69.92 385.55,-69.24 307,-70.71 293.14,-70.97 277.93,-71.49 264.53,-72.02"/>
<polygon fill="black" stroke="black" points="264.66,-68.51 254.81,-72.42 264.94,-75.5 264.66,-68.51"/>
<text text-anchor="middle" x="388" y="-73.1" font-family="Times New Roman,serif" font-size="14.00">eps</text>
</g>
<!-- s5&#45;&gt;s7 -->
<g id="edge12" class="edge">
<title>s5&#45;&gt;s7</title>
<path fill="none" stroke="black" d="M573.74,-61.49C588.41,-55.54 607.73,-47.7 624.07,-41.07"/>
<polygon fill="black" stroke="black" points="624.94,-44.49 632.9,-37.49 622.31,-38.01 624.94,-44.49"/>
<text text-anchor="middle" x="604" y="-54.99" font-family="Times New Roman,serif" font-size="14.00">eps</text>
</g>
<!-- s11 -->
<g id="node12" class="node">
<title>s11</title>
<ellipse fill="none" stroke="black" cx="1066.75" cy="-27.71" rx="27" ry="18"/>
<text text-anchor="middle" x="1066.75" y="-22.66" font-family="Times New Roman,serif" font-size="14.00">s11</text>
</g>
<!-- s10&#45;&gt;s11 -->
<g id="edge14" class="edge">
<title>s10&#45;&gt;s11</title>
<path fill="none" stroke="black" d="M997.39,-27.71C1006.94,-27.71 1017.91,-27.71 1028.23,-27.71"/>
<polygon fill="black" stroke="black" points="1027.98,-31.21 1037.98,-27.71 1027.98,-24.21 1027.98,-31.21"/>
<text text-anchor="middle" x="1018.38" y="-30.91" font-family="Times New Roman,serif" font-size="14.00">b</text>
</g>
<!-- s12 -->
<g id="node13" class="node">
<title>s12</title>
<ellipse fill="none" stroke="black" cx="1174.75" cy="-27.71" rx="27" ry="18"/>
<text text-anchor="middle" x="1174.75" y="-22.66" font-family="Times New Roman,serif" font-size="14.00">s12</text>
</g>
<!-- s11&#45;&gt;s12 -->
<g id="edge15" class="edge">
<title>s11&#45;&gt;s12</title>
<path fill="none" stroke="black" d="M1094.22,-27.71C1106.97,-27.71 1122.47,-27.71 1136.39,-27.71"/>
<polygon fill="black" stroke="black" points="1136.1,-31.21 1146.1,-27.71 1136.1,-24.21 1136.1,-31.21"/>
<text text-anchor="middle" x="1120.75" y="-30.91" font-family="Times New Roman,serif" font-size="14.00">eps</text>
</g>
<!-- s13 -->
<g id="node14" class="node">
<title>s13</title>
<ellipse fill="none" stroke="black" cx="1272.21" cy="-27.71" rx="23.71" ry="23.71"/>
<ellipse fill="none" stroke="black" cx="1272.21" cy="-27.71" rx="27.71" ry="27.71"/>
<text text-anchor="middle" x="1272.21" y="-22.66" font-family="Times New Roman,serif" font-size="14.00">s13</text>
</g>
<!-- s12&#45;&gt;s13 -->
<g id="edge16" class="edge">
<title>s12&#45;&gt;s13</title>
<path fill="none" stroke="black" d="M1202.09,-27.71C1211.63,-27.71 1222.61,-27.71 1232.97,-27.71"/>
<polygon fill="black" stroke="black" points="1232.78,-31.21 1242.78,-27.71 1232.78,-24.21 1232.78,-31.21"/>
<text text-anchor="middle" x="1223.12" y="-30.91" font-family="Times New Roman,serif" font-size="14.00">b</text>
</g>
<!-- start -->
<g id="node15" class="node">
<title>start</title>
<ellipse fill="none" stroke="black" cx="27" cy="-27.71" rx="27" ry="18"/>
<text text-anchor="middle" x="27" y="-22.66" font-family="Times New Roman,serif" font-size="14.00">start</text>
</g>
<!-- start&#45;&gt;s6 -->
<g id="edge17" class="edge">
<title>start&#45;&gt;s6</title>
<path fill="none" stroke="black" d="M54.22,-27.71C62.12,-27.71 70.94,-27.71 79.43,-27.71"/>
<polygon fill="black" stroke="black" points="79.14,-31.21 89.14,-27.71 79.14,-24.21 79.14,-31.21"/>
</g>
</g>
</svg>
