<?xml version="1.0" encoding="UTF-8" standalone="no"?>
<!DOCTYPE svg PUBLIC "-//W3C//DTD SVG 1.1//EN"
 "http://www.w3.org/Graphics/SVG/1.1/DTD/svg11.dtd">
<!-- Generated by graphviz version 12.2.1 (20241206.2353)
 -->
<!-- Title: G Pages: 1 -->
<svg width="352pt" height="127pt"
 viewBox="0.00 0.00 351.50 127.00" xmlns="http://www.w3.org/2000/svg" xmlns:xlink="http://www.w3.org/1999/xlink">
<g id="graph0" class="graph" transform="scale(1 1) rotate(0) translate(4 123)">
<title>G</title>
<polygon fill="white" stroke="none" points="-4,4 -4,-123 347.5,-123 347.5,4 -4,4"/>
<!-- s0 -->
<g id="node1" class="node">
<title>s0</title>
<ellipse fill="none" stroke="black" cx="27" cy="-18" rx="27" ry="18"/>
<text text-anchor="middle" x="27" y="-12.95" font-family="Times New Roman,serif" font-size="14.00">s0</text>
</g>
<!-- s0&#45;&gt;s0 -->
<g id="edge1" class="edge">
<title>s0&#45;&gt;s0</title>
<path fill="none" stroke="black" d="M18.43,-35.41C16.83,-45.09 19.69,-54 27,-54 31.23,-54 33.97,-51.02 35.21,-46.64"/>
<polygon fill="black" stroke="black" points="38.7,-47.03 35.52,-36.92 31.71,-46.81 38.7,-47.03"/>
<text text-anchor="middle" x="27" y="-57.2" font-family="Times New Roman,serif" font-size="14.00">b</text>
</g>
<!-- s1 -->
<g id="node2" class="node">
<title>s1</title>
<ellipse fill="none" stroke="black" cx="123" cy="-64" rx="27" ry="18"/>
<text text-anchor="middle" x="123" y="-58.95" font-family="Times New Roman,serif" font-size="14.00">s1</text>
</g>
<!-- s0&#45;&gt;s1 -->
<g id="edge2" class="edge">
<title>s0&#45;&gt;s1</title>
<path fill="none" stroke="black" d="M49.33,-28.44C61.38,-34.34 76.69,-41.82 90.14,-48.41"/>
<polygon fill="black" stroke="black" points="88.55,-51.53 99.07,-52.78 91.63,-45.24 88.55,-51.53"/>
<text text-anchor="middle" x="75" y="-45.58" font-family="Times New Roman,serif" font-size="14.00">a</text>
</g>
<!-- s1&#45;&gt;s1 -->
<g id="edge4" class="edge">
<title>s1&#45;&gt;s1</title>
<path fill="none" stroke="black" d="M114.43,-81.41C112.83,-91.09 115.69,-100 123,-100 127.23,-100 129.97,-97.02 131.21,-92.64"/>
<polygon fill="black" stroke="black" points="134.7,-93.03 131.52,-82.92 127.71,-92.81 134.7,-93.03"/>
<text text-anchor="middle" x="123" y="-103.2" font-family="Times New Roman,serif" font-size="14.00">a</text>
</g>
<!-- s2 -->
<g id="node3" class="node">
<title>s2</title>
<ellipse fill="none" stroke="black" cx="219.75" cy="-101" rx="27" ry="18"/>
<text text-anchor="middle" x="219.75" y="-95.95" font-family="Times New Roman,serif" font-size="14.00">s2</text>
</g>
<!-- s1&#45;&gt;s2 -->
<g id="edge3" class="edge">
<title>s1&#45;&gt;s2</title>
<path fill="none" stroke="black" d="M138.37,-79.32C146.32,-86.71 156.84,-94.85 168,-99 172.2,-100.56 176.74,-101.58 181.31,-102.21"/>
<polygon fill="black" stroke="black" points="180.83,-105.69 191.07,-102.96 181.36,-98.71 180.83,-105.69"/>
<text text-anchor="middle" x="171.38" y="-104.17" font-family="Times New Roman,serif" font-size="14.00">b</text>
</g>
<!-- s2&#45;&gt;s1 -->
<g id="edge6" class="edge">
<title>s2&#45;&gt;s1</title>
<path fill="none" stroke="black" d="M198.54,-89.62C191.19,-85.77 182.73,-81.65 174.75,-78.5 169.97,-76.62 164.85,-74.86 159.76,-73.27"/>
<polygon fill="black" stroke="black" points="160.88,-69.95 150.3,-70.49 158.9,-76.66 160.88,-69.95"/>
<text text-anchor="middle" x="171.38" y="-81.7" font-family="Times New Roman,serif" font-size="14.00">a</text>
</g>
<!-- s3 -->
<g id="node4" class="node">
<title>s3</title>
<ellipse fill="none" stroke="black" cx="316.5" cy="-48" rx="27" ry="18"/>
<text text-anchor="middle" x="316.5" y="-42.95" font-family="Times New Roman,serif" font-size="14.00">s3</text>
</g>
<!-- s2&#45;&gt;s3 -->
<g id="edge5" class="edge">
<title>s2&#45;&gt;s3</title>
<path fill="none" stroke="black" d="M240.84,-89.76C253.7,-82.57 270.61,-73.11 285.09,-65.01"/>
<polygon fill="black" stroke="black" points="286.77,-68.08 293.79,-60.15 283.35,-61.97 286.77,-68.08"/>
<text text-anchor="middle" x="268.12" y="-79.29" font-family="Times New Roman,serif" font-size="14.00">b</text>
</g>
<!-- s3&#45;&gt;s0 -->
<g id="edge7" class="edge">
<title>s3&#45;&gt;s0</title>
<path fill="none" stroke="black" d="M289.33,-45.27C238.13,-39.93 124.56,-28.08 65.43,-21.91"/>
<polygon fill="black" stroke="black" points="65.84,-18.43 55.53,-20.87 65.11,-25.39 65.84,-18.43"/>
<text text-anchor="middle" x="171.38" y="-36.2" font-family="Times New Roman,serif" font-size="14.00">b</text>
</g>
<!-- s3&#45;&gt;s1 -->
<g id="edge8" class="edge">
<title>s3&#45;&gt;s1</title>
<path fill="none" stroke="black" d="M289.15,-49.91C264.29,-51.74 225.97,-54.64 192.75,-57.5 182.62,-58.37 171.66,-59.38 161.52,-60.34"/>
<polygon fill="black" stroke="black" points="161.24,-56.85 151.61,-61.28 161.9,-63.82 161.24,-56.85"/>
<text text-anchor="middle" x="219.75" y="-60.7" font-family="Times New Roman,serif" font-size="14.00">a</text>
</g>
</g>
</svg>
